<svg width="76" height="40" viewBox="0 0 76 40" fill="none" xmlns="http://www.w3.org/2000/svg">
<path d="M38 32.6777L4.85651 1.373C4.58942 1.11526 4.27232 0.911503 3.92356 0.773506C3.5748 0.635509 3.2013 0.566017 2.82469 0.569054C2.44808 0.57209 2.07583 0.647594 1.72948 0.791199C1.38313 0.934799 1.06956 1.14365 0.806916 1.40565C0.544269 1.66766 0.337761 1.97763 0.199343 2.31762C0.0609252 2.6576 -0.00665464 3.02087 0.000514547 3.38638C0.00768373 3.75188 0.0894597 4.11238 0.24111 4.447C0.39276 4.78163 0.611273 5.08374 0.884004 5.33585L36.0137 38.5133C36.5455 39.0154 37.2581 39.2964 38 39.2964C38.7419 39.2964 39.4545 39.0154 39.9863 38.5133L75.116 5.33585C75.3887 5.08373 75.6072 4.78163 75.7589 4.447C75.9105 4.11237 75.9923 3.75188 75.9995 3.38637C76.0067 3.02086 75.9391 2.6576 75.8007 2.31761C75.6622 1.97762 75.4557 1.66766 75.1931 1.40565C74.9304 1.14364 74.6169 0.934796 74.2705 0.791196C73.9242 0.647591 73.5519 0.572087 73.1753 0.56905C72.7987 0.566014 72.4252 0.635506 72.0764 0.773503C71.7277 0.9115 71.4106 1.11526 71.1435 1.373L38 32.6777Z" fill="white"/>
</svg>
