<svg width="103" height="103" viewBox="0 0 103 103" fill="none" xmlns="http://www.w3.org/2000/svg">
<path d="M56.7943 0.00633632C60.5522 -0.00808433 64.3101 0.0296851 68.067 0.119633L69.0661 0.155681C70.2196 0.19688 71.3577 0.248378 72.7327 0.310176C78.212 0.567667 81.9507 1.43284 85.2311 2.70485C88.6299 4.0129 91.4932 5.78444 94.3564 8.64774C96.9744 11.2206 99.0006 14.3329 100.294 17.7681C101.566 21.0485 102.431 24.7924 102.689 30.2719C102.751 31.6417 102.802 32.785 102.843 33.9385L102.874 34.9376C102.966 38.6928 103.005 42.4491 102.993 46.2054L102.998 50.0472V56.7935C103.01 60.5515 102.971 64.3095 102.879 68.0664L102.848 69.0655C102.807 70.219 102.756 71.3572 102.694 72.7322C102.436 78.2116 101.561 81.9503 100.294 85.2308C99.0048 88.6696 96.9781 91.7844 94.3564 94.3563C91.7814 96.974 88.6676 99.0001 85.2311 100.294C81.9507 101.566 78.212 102.431 72.7327 102.689C71.3577 102.75 70.2196 102.802 69.0661 102.843L68.067 102.874C64.3102 102.966 60.5522 103.005 56.7943 102.993L52.9526 102.998H46.2115C42.4536 103.01 38.6956 102.971 34.9388 102.879L33.9397 102.848C32.7172 102.804 31.495 102.753 30.2731 102.694C24.7938 102.436 21.0551 101.561 17.7696 100.294C14.3331 99.0032 11.2203 96.9766 8.64938 94.3563C6.0284 91.7828 4.00032 88.6686 2.70658 85.2308C1.4346 81.9503 0.569442 78.2116 0.311955 72.7322C0.254602 71.5102 0.203104 70.288 0.157463 69.0655L0.131715 68.0664C0.0367726 64.3095 -0.00614645 60.5515 0.0029714 56.7935V46.2054C-0.0114013 42.4491 0.0263674 38.6928 0.116266 34.9376L0.152314 33.9385C0.193512 32.785 0.245009 31.6417 0.306806 30.2719C0.564293 24.7873 1.42945 21.0537 2.70143 17.7681C3.99594 14.3312 6.02798 11.2198 8.65453 8.65289C11.2237 6.03035 14.3345 4.0004 17.7696 2.70485C21.0551 1.43284 24.7886 0.567667 30.2731 0.310176L33.9397 0.155681L34.9388 0.129933C38.6939 0.0350362 42.4501 -0.00788361 46.2064 0.00118687L56.7943 0.00633632ZM51.5003 25.7555C48.0887 25.7072 44.7014 26.3375 41.5355 27.6097C38.3695 28.882 35.488 30.7708 33.0583 33.1663C30.6287 35.5619 28.6994 38.4165 27.3825 41.5642C26.0657 44.7119 25.3875 48.0899 25.3875 51.502C25.3875 54.9141 26.0657 58.2921 27.3825 61.4398C28.6994 64.5875 30.6287 67.4421 33.0583 69.8377C35.488 72.2333 38.3695 74.122 41.5355 75.3943C44.7014 76.6665 48.0887 77.2968 51.5003 77.2486C58.3293 77.2486 64.8786 74.5357 69.7074 69.7068C74.5362 64.8779 77.249 58.3285 77.249 51.4994C77.249 44.6703 74.5362 38.1209 69.7074 33.2921C64.8786 28.4632 58.3293 25.7555 51.5003 25.7555ZM51.5003 36.0551C53.5525 36.0173 55.5917 36.3888 57.4987 37.1479C59.4057 37.9071 61.1424 39.0386 62.6072 40.4765C64.072 41.9143 65.2356 43.6296 66.03 45.5222C66.8245 47.4149 67.2338 49.4468 67.2342 51.4994C67.2345 53.552 66.8258 55.5841 66.032 57.4769C65.2382 59.3698 64.0752 61.0855 62.6108 62.5239C61.1465 63.9622 59.4103 65.0943 57.5035 65.8541C55.5967 66.6138 53.5577 66.986 51.5055 66.9489C47.4081 66.9489 43.4785 65.3212 40.5812 62.4239C37.684 59.5265 36.0563 55.5969 36.0563 51.4994C36.0563 47.402 37.684 43.4723 40.5812 40.575C43.4785 37.6777 47.4081 36.05 51.5055 36.05L51.5003 36.0551ZM78.5364 18.0307C76.8751 18.0972 75.3039 18.804 74.152 20.003C73 21.2019 72.3567 22.8002 72.3567 24.4629C72.3567 26.1256 73 27.7238 74.152 28.9227C75.3039 30.1217 76.8751 30.8285 78.5364 30.895C80.2437 30.895 81.881 30.2168 83.0882 29.0095C84.2954 27.8023 84.9736 26.165 84.9736 24.4577C84.9736 22.7504 84.2954 21.1131 83.0882 19.9059C81.881 18.6986 80.2437 18.0204 78.5364 18.0204V18.0307Z" fill="white"/>
</svg>
