<svg width="103" height="103" viewBox="0 0 103 103" fill="none" xmlns="http://www.w3.org/2000/svg">
<path d="M91.5556 0C94.5908 0 97.5017 1.20575 99.648 3.352C101.794 5.49825 103 8.40919 103 11.4444V91.5556C103 94.5908 101.794 97.5017 99.648 99.648C97.5017 101.794 94.5908 103 91.5556 103H11.4444C8.40919 103 5.49825 101.794 3.352 99.648C1.20575 97.5017 0 94.5908 0 91.5556V11.4444C0 8.40919 1.20575 5.49825 3.352 3.352C5.49825 1.20575 8.40919 0 11.4444 0H91.5556ZM88.6944 88.6944V58.3667C88.6944 53.4192 86.7291 48.6744 83.2307 45.176C79.7323 41.6776 74.9875 39.7122 70.04 39.7122C65.1761 39.7122 59.5111 42.6878 56.7644 47.1511V40.7994H40.7994V88.6944H56.7644V60.4839C56.7644 56.0778 60.3122 52.4728 64.7183 52.4728C66.843 52.4728 68.8807 53.3168 70.383 54.8192C71.8854 56.3216 72.7294 58.3592 72.7294 60.4839V88.6944H88.6944ZM22.2022 31.8156C24.7518 31.8156 27.197 30.8027 28.9999 28.9999C30.8027 27.197 31.8156 24.7518 31.8156 22.2022C31.8156 16.8806 27.5239 12.5317 22.2022 12.5317C19.6374 12.5317 17.1777 13.5505 15.3641 15.3641C13.5505 17.1777 12.5317 19.6374 12.5317 22.2022C12.5317 27.5239 16.8806 31.8156 22.2022 31.8156ZM30.1561 88.6944V40.7994H14.3056V88.6944H30.1561Z" fill="white"/>
</svg>
