<svg width="193" height="112" viewBox="0 0 193 112" fill="none" xmlns="http://www.w3.org/2000/svg">
<path d="M192.3 18.9238C190.221 24.6784 185.421 29.1728 181.311 33.5752C180.671 34.2646 180.671 34.2646 180.019 34.9679C157.497 58.3974 122.707 66.6394 91.2947 67.2754C60.5571 67.586 29.1051 63.2473 0 53.1104C0 52.7075 0 52.3046 0 51.8895C0.974217 51.7405 0.974217 51.7405 1.96812 51.5885C92.791 37.8712 92.791 37.8712 182.969 20.5037C183.723 20.3416 183.723 20.3416 184.492 20.1763C185.413 19.9776 186.335 19.7771 187.255 19.5746C188.98 19.2019 190.529 18.9238 192.3 18.9238Z" fill="white"/>
<path d="M123.316 0C115.918 16.4351 93.7322 27.265 78.0891 33.4247C53.7227 42.6143 26.1534 48.7659 0 48.2275C0 47.8246 0 47.4217 0 47.0066C0.880688 46.6667 1.76138 46.3268 2.64206 45.9869C3.22777 45.7608 3.81347 45.5347 4.41692 45.3018C5.75862 44.784 7.10033 44.2661 8.44204 43.7483C11.8825 42.4204 15.3229 41.0925 18.7633 39.7644C20.7876 38.983 22.812 38.2016 24.8363 37.4202C25.2476 37.2615 25.6588 37.1028 26.0825 36.9392C32.0464 34.6372 38.0109 32.3368 43.9757 30.0373C56.8603 25.0694 69.7433 20.0983 82.6049 15.0711C86.0703 13.7175 89.536 12.3644 93.0016 11.0115C94.1355 10.5687 95.2693 10.1258 96.4031 9.68269C100.16 8.21463 103.918 6.74977 107.678 5.28899C108.886 4.81882 110.095 4.34755 111.302 3.87514C112.97 3.22283 114.64 2.57436 116.31 1.92681C116.808 1.73085 117.307 1.5349 117.821 1.333C121.276 0 121.276 0 123.316 0Z" fill="white"/>
<path d="M4.5873 91.4364V102.152H1.46794V76.4635H7.26629C8.90548 76.4635 10.2633 76.9405 11.3398 77.8947C12.4897 78.9712 13.0646 80.5125 13.0646 82.5187V85.4179C13.0646 87.3996 12.4897 88.9287 11.3398 90.0052C10.3123 90.9593 8.95441 91.4364 7.26629 91.4364H4.5873ZM4.5873 79.5828V88.317H7.26629C8.19598 88.317 8.86878 88.0846 9.2847 87.6198C9.72508 87.1549 9.94527 86.421 9.94527 85.4179V82.5187C9.94527 81.5156 9.72508 80.7816 9.2847 80.3168C8.86878 79.8275 8.19598 79.5828 7.26629 79.5828H4.5873ZM28.8048 79.5828H21.7954V87.4363H26.6763V90.5556H21.7954V99.033H28.8048V102.152H18.6761V76.4635H28.8048V79.5828ZM37.8209 91.4364V102.152H34.7015V76.4635H40.4999C42.139 76.4635 43.4969 76.9405 44.5734 77.8947C45.7233 78.9712 46.2982 80.5125 46.2982 82.5187V85.4179C46.2982 87.3996 45.7233 88.9287 44.5734 90.0052C43.5458 90.9593 42.188 91.4364 40.4999 91.4364H37.8209ZM37.8209 79.5828V88.317H40.4999C41.4295 88.317 42.1024 88.0846 42.5183 87.6198C42.9586 87.1549 43.1788 86.421 43.1788 85.4179V82.5187C43.1788 81.5156 42.9586 80.7816 42.5183 80.3168C42.1024 79.8275 41.4295 79.5828 40.4999 79.5828H37.8209ZM55.029 91.4364V102.152H51.9096V76.4635H57.708C59.3472 76.4635 60.705 76.9405 61.7815 77.8947C62.9314 78.9712 63.5063 80.5125 63.5063 82.5187V85.4179C63.5063 87.3996 62.9314 88.9287 61.7815 90.0052C60.7539 90.9593 59.3961 91.4364 57.708 91.4364H55.029ZM55.029 79.5828V88.317H57.708C58.6377 88.317 59.3105 88.0846 59.7264 87.6198C60.1668 87.1549 60.387 86.421 60.387 85.4179V82.5187C60.387 81.5156 60.1668 80.7816 59.7264 80.3168C59.3105 79.8275 58.6377 79.5828 57.708 79.5828H55.029ZM79.2465 79.5828H72.2371V87.4363H77.118V90.5556H72.2371V99.033H79.2465V102.152H69.1177V76.4635H79.2465V79.5828ZM96.7766 102.152H93.5471L90.6112 91.4364H88.2625V102.152H85.1432V76.4635H90.9415C92.6297 76.4635 93.9875 76.9405 95.0151 77.8947C96.1894 78.9467 96.7766 80.488 96.7766 82.5187V85.4179C96.7766 87.3996 96.1894 88.9287 95.0151 90.0052C94.6481 90.3722 94.2077 90.6657 93.6939 90.8859L96.7766 102.152ZM93.6572 82.5187C93.6572 81.5156 93.437 80.7816 92.9966 80.3168C92.5563 79.8275 91.8712 79.5828 90.9415 79.5828H88.2625V88.317H90.9415C91.8712 88.317 92.5563 88.0846 92.9966 87.6198C93.437 87.1549 93.6572 86.421 93.6572 85.4179V82.5187ZM121.439 100.831C120.412 101.712 119.066 102.152 117.403 102.152H111.567V76.4635H117.403C119.066 76.4635 120.412 76.9405 121.439 77.8947C122.614 78.9956 123.201 80.537 123.201 82.5187V96.2439C123.201 98.2256 122.614 99.7547 121.439 100.831ZM114.687 79.5828V99.033H117.403C118.308 99.033 118.956 98.8495 119.348 98.4825C119.837 98.0421 120.082 97.2959 120.082 96.2439V82.5187C120.082 81.5156 119.861 80.7816 119.421 80.3168C119.005 79.8275 118.332 79.5828 117.403 79.5828H114.687ZM139.334 79.5828H132.325V87.4363H137.206V90.5556H132.325V99.033H139.334V102.152H129.206V76.4635H139.334V79.5828ZM154.453 101.051C153.376 102.006 152.018 102.483 150.379 102.483C148.716 102.483 147.37 102.006 146.342 101.051C145.168 99.9749 144.581 98.4336 144.581 96.4274V82.1517C144.581 80.17 145.168 78.6287 146.342 77.5277C147.37 76.5735 148.716 76.0965 150.379 76.0965C152.018 76.0965 153.376 76.5735 154.453 77.5277C155.627 78.6287 156.214 80.17 156.214 82.1517V84.5004H153.095V82.1517C153.095 81.1486 152.875 80.4146 152.434 79.9498C151.994 79.4605 151.309 79.2158 150.379 79.2158C149.45 79.2158 148.764 79.4605 148.324 79.9498C147.908 80.4146 147.7 81.1486 147.7 82.1517V96.4274C147.7 97.4305 147.908 98.1767 148.324 98.666C148.764 99.1308 149.45 99.3633 150.379 99.3633C151.309 99.3633 151.994 99.1308 152.434 98.666C152.875 98.1767 153.095 97.4305 153.095 96.4274V92.9777H156.214V96.4274C156.214 98.4336 155.627 99.9749 154.453 101.051ZM171.804 101.051C170.728 102.006 169.37 102.483 167.731 102.483C166.091 102.483 164.734 102.006 163.657 101.051C162.507 99.9749 161.932 98.4336 161.932 96.4274V82.1884C161.932 80.2067 162.507 78.6654 163.657 77.5644C164.734 76.6102 166.091 76.1332 167.731 76.1332C169.37 76.1332 170.728 76.6102 171.804 77.5644C172.954 78.6654 173.529 80.2067 173.529 82.1884V96.4274C173.529 98.4336 172.954 99.9749 171.804 101.051ZM169.749 79.9865C169.333 79.4972 168.66 79.2525 167.731 79.2525C166.801 79.2525 166.116 79.4972 165.676 79.9865C165.26 80.4513 165.052 81.1853 165.052 82.1884V96.4274C165.052 97.4305 165.26 98.1767 165.676 98.666C166.116 99.1308 166.801 99.3633 167.731 99.3633C168.66 99.3633 169.333 99.1308 169.749 98.666C170.189 98.1767 170.41 97.4305 170.41 96.4274V82.1884C170.41 81.1853 170.189 80.4513 169.749 79.9865ZM191.173 102.152H187.944L185.008 91.4364H182.659V102.152H179.54V76.4635H185.338C187.026 76.4635 188.384 76.9405 189.412 77.8947C190.586 78.9467 191.173 80.488 191.173 82.5187V85.4179C191.173 87.3996 190.586 88.9287 189.412 90.0052C189.045 90.3722 188.604 90.6657 188.091 90.8859L191.173 102.152ZM188.054 82.5187C188.054 81.5156 187.834 80.7816 187.393 80.3168C186.953 79.8275 186.268 79.5828 185.338 79.5828H182.659V88.317H185.338C186.268 88.317 186.953 88.0846 187.393 87.6198C187.834 87.1549 188.054 86.421 188.054 85.4179V82.5187Z" fill="white"/>
</svg>
